# xmcd
#
# Track frame offsets: 
#        150
#        17264
#        35324
#        58589
#        77802
#        99263
#        121622
#        146398
#        176915
#        200868
#        225575
#        254592
#        273637
#        289537
#        313757
#        336481
#
# Disc length: 4706 seconds
#
# Revision: 0
# Processed by: cddbd v1.5.2PL0 Copyright (c) Steve Scherf et al.
# Submitted via: ExactAudioCopy v0.95a5
#
DISCID=e2126010
DTITLE=Adriano Celentano - Forever Best! CD01
DYEAR=2007
DGENRE=Pop
TTITLE0=Il Tempo Se Ne Va
TTITLE1=Soli
TTITLE2=Amore No
TTITLE3=Pay Pay Pay
TTITLE4=Susanna
TTITLE5=Un Po Artista Un Po No
TTITLE6=Quel Punto
TTITLE7=I Want To Know
TTITLE8=Splende La Notte
TTITLE9=Che Cosa Ti Farei
TTITLE10=Somebody Save Me
TTITLE11=Stivali E Colbacco
TTITLE12=Yuppi Do
TTITLE13=Uh... Uh...
TTITLE14=Bel Giovane
TTITLE15=Azzurro
EXTD=
EXTT0=
EXTT1=
EXTT2=
EXTT3=
EXTT4=
EXTT5=
EXTT6=
EXTT7=
EXTT8=
EXTT9=
EXTT10=
EXTT11=
EXTT12=
EXTT13=
EXTT14=
EXTT15=
PLAYORDER=
